HIERARCHY
ROOT Hips
{
  OFFSET -1.29455 93.9526 21.1244
  CHANNELS 6 Xposition Yposition Zposition Zrotation Xrotation Yrotation
  JOINT Spine
  {
    OFFSET 0 9.9235 -1.2273
    CHANNELS 6 Xposition Yposition Zposition Zrotation Xrotation Yrotation
    JOINT Spine1
    {
      OFFSET -0.0001 11.6454 -1.4223
      CHANNELS 6 Xposition Yposition Zposition Zrotation Xrotation Yrotation
      JOINT Spine2
      {
        OFFSET 0.0001 13.3602 -1.6265
        CHANNELS 6 Xposition Yposition Zposition Zrotation Xrotation Yrotation
        JOINT Neck
        {
          OFFSET 0 15.0325 0.7929
          CHANNELS 6 Xposition Yposition Zposition Zrotation Xrotation Yrotation
          JOINT Head
          {
            OFFSET 0 10.3218 3.1424
            CHANNELS 6 Xposition Yposition Zposition Zrotation Xrotation Yrotation
            JOINT HeadTop_End
            {
              OFFSET 0.0002 18.4747 6.6364
              CHANNELS 6 Xposition Yposition Zposition Zrotation Xrotation Yrotation
              End Site
              {
                OFFSET 0 0 0
              }
            }
            JOINT LeftEye
            {
              OFFSET 2.9479 7.6817 9.1207
              CHANNELS 6 Xposition Yposition Zposition Zrotation Xrotation Yrotation
              End Site
              {
                OFFSET 0 0 0
              }
            }
            JOINT RightEye
            {
              OFFSET -2.9445 7.6817 9.1205
              CHANNELS 6 Xposition Yposition Zposition Zrotation Xrotation Yrotation
              End Site
              {
                OFFSET 0 0 0
              }
            }
          }
        }
        JOINT LeftShoulder
        {
          OFFSET 6.1058 9.1104 0.7056
          CHANNELS 6 Xposition Yposition Zposition Zrotation Xrotation Yrotation
          JOINT LeftArm
          {
            OFFSET 12.655 -0.2659 -2.6009
            CHANNELS 6 Xposition Yposition Zposition Zrotation Xrotation Yrotation
            JOINT LeftForeArm
            {
              OFFSET 27.4047 0 0
              CHANNELS 6 Xposition Yposition Zposition Zrotation Xrotation Yrotation
              JOINT LeftHand
              {
                OFFSET 27.6145 0 0
                CHANNELS 6 Xposition Yposition Zposition Zrotation Xrotation Yrotation
                JOINT LeftHandMiddle1
                {
                  OFFSET 12.7755 0 0
                  CHANNELS 6 Xposition Yposition Zposition Zrotation Xrotation Yrotation
                  JOINT LeftHandMiddle2
                  {
                    OFFSET 3.614 0 0
                    CHANNELS 6 Xposition Yposition Zposition Zrotation Xrotation Yrotation
                    JOINT LeftHandMiddle3
                    {
                      OFFSET 3.4598 0 0
                      CHANNELS 6 Xposition Yposition Zposition Zrotation Xrotation Yrotation
                      End Site
                      {
                        OFFSET 3.6802 0 0
                      }
                    }
                  }
                }
                JOINT LeftHandThumb1
                {
                  OFFSET 3.7888 -2.167 3.0031
                  CHANNELS 6 Xposition Yposition Zposition Zrotation Xrotation Yrotation
                  JOINT LeftHandThumb2
                  {
                    OFFSET 3.6754 -2.122 2.122
                    CHANNELS 6 Xposition Yposition Zposition Zrotation Xrotation Yrotation
                    JOINT LeftHandThumb3
                    {
                      OFFSET 3.3944 -1.9597 1.9598
                      CHANNELS 6 Xposition Yposition Zposition Zrotation Xrotation Yrotation
                      End Site
                      {
                        OFFSET 2.6794 -1.5469 1.5469
                      }
                    }
                  }
                }
                JOINT LeftHandIndex1
                {
                  OFFSET 12.2666 -0.2317 2.8221
                  CHANNELS 6 Xposition Yposition Zposition Zrotation Xrotation Yrotation
                  JOINT LeftHandIndex2
                  {
                    OFFSET 3.892 0 0
                    CHANNELS 6 Xposition Yposition Zposition Zrotation Xrotation Yrotation
                    JOINT LeftHandIndex3
                    {
                      OFFSET 3.4152 0 0
                      CHANNELS 6 Xposition Yposition Zposition Zrotation Xrotation Yrotation
                      End Site
                      {
                        OFFSET 3.078 0 0
                      }
                    }
                  }
                }
                JOINT LeftHandRing1
                {
                  OFFSET 12.147 0.0099 -2.2166
                  CHANNELS 6 Xposition Yposition Zposition Zrotation Xrotation Yrotation
                  JOINT LeftHandRing2
                  {
                    OFFSET 3.6012 0 0
                    CHANNELS 6 Xposition Yposition Zposition Zrotation Xrotation Yrotation
                    JOINT LeftHandRing3
                    {
                      OFFSET 3.3073 0 0
                      CHANNELS 6 Xposition Yposition Zposition Zrotation Xrotation Yrotation
                      End Site
                      {
                        OFFSET 3.6601 0 0
                      }
                    }
                  }
                }
                JOINT LeftHandPinky1
                {
                  OFFSET 10.9082 -0.2264 -4.7258
                  CHANNELS 6 Xposition Yposition Zposition Zrotation Xrotation Yrotation
                  JOINT LeftHandPinky2
                  {
                    OFFSET 4.1367 0 0
                    CHANNELS 6 Xposition Yposition Zposition Zrotation Xrotation Yrotation
                    JOINT LeftHandPinky3
                    {
                      OFFSET 2.5948 0 0
                      CHANNELS 6 Xposition Yposition Zposition Zrotation Xrotation Yrotation
                      End Site
                      {
                        OFFSET 2.9239 0 0
                      }
                    }
                  }
                }
              }
            }
          }
        }
        JOINT RightShoulder
        {
          OFFSET -6.1057 9.1105 0.7056
          CHANNELS 6 Xposition Yposition Zposition Zrotation Xrotation Yrotation
          JOINT RightArm
          {
            OFFSET -12.655 -0.266 -2.6009
            CHANNELS 6 Xposition Yposition Zposition Zrotation Xrotation Yrotation
            JOINT RightForeArm
            {
              OFFSET -27.4047 0 0
              CHANNELS 6 Xposition Yposition Zposition Zrotation Xrotation Yrotation
              JOINT RightHand
              {
                OFFSET -27.6145 0 0
                CHANNELS 6 Xposition Yposition Zposition Zrotation Xrotation Yrotation
                JOINT RightHandMiddle1
                {
                  OFFSET -12.7755 0 0
                  CHANNELS 6 Xposition Yposition Zposition Zrotation Xrotation Yrotation
                  JOINT RightHandMiddle2
                  {
                    OFFSET -3.614 0 0
                    CHANNELS 6 Xposition Yposition Zposition Zrotation Xrotation Yrotation
                    JOINT RightHandMiddle3
                    {
                      OFFSET -3.4598 0 0
                      CHANNELS 6 Xposition Yposition Zposition Zrotation Xrotation Yrotation
                      End Site
                      {
                        OFFSET -3.6802 0 0
                      }
                    }
                  }
                }
                JOINT RightHandThumb1
                {
                  OFFSET -3.7888 -2.167 3.0031
                  CHANNELS 6 Xposition Yposition Zposition Zrotation Xrotation Yrotation
                  JOINT RightHandThumb2
                  {
                    OFFSET -3.6754 -2.122 2.122
                    CHANNELS 6 Xposition Yposition Zposition Zrotation Xrotation Yrotation
                    JOINT RightHandThumb3
                    {
                      OFFSET -3.3944 -1.9597 1.9598
                      CHANNELS 6 Xposition Yposition Zposition Zrotation Xrotation Yrotation
                      End Site
                      {
                        OFFSET -2.6794 -1.5469 1.5469
                      }
                    }
                  }
                }
                JOINT RightHandIndex1
                {
                  OFFSET -12.2666 -0.2317 2.8221
                  CHANNELS 6 Xposition Yposition Zposition Zrotation Xrotation Yrotation
                  JOINT RightHandIndex2
                  {
                    OFFSET -3.892 0 0
                    CHANNELS 6 Xposition Yposition Zposition Zrotation Xrotation Yrotation
                    JOINT RightHandIndex3
                    {
                      OFFSET -3.4152 0 0
                      CHANNELS 6 Xposition Yposition Zposition Zrotation Xrotation Yrotation
                      End Site
                      {
                        OFFSET -3.078 0 0
                      }
                    }
                  }
                }
                JOINT RightHandRing1
                {
                  OFFSET -12.147 0.0099 -2.2166
                  CHANNELS 6 Xposition Yposition Zposition Zrotation Xrotation Yrotation
                  JOINT RightHandRing2
                  {
                    OFFSET -3.6012 0 0
                    CHANNELS 6 Xposition Yposition Zposition Zrotation Xrotation Yrotation
                    JOINT RightHandRing3
                    {
                      OFFSET -3.3073 0 0
                      CHANNELS 6 Xposition Yposition Zposition Zrotation Xrotation Yrotation
                      End Site
                      {
                        OFFSET -3.6601 0 0
                      }
                    }
                  }
                }
                JOINT RightHandPinky1
                {
                  OFFSET -10.9082 -0.2264 -4.7258
                  CHANNELS 6 Xposition Yposition Zposition Zrotation Xrotation Yrotation
                  JOINT RightHandPinky2
                  {
                    OFFSET -4.1367 0 0
                    CHANNELS 6 Xposition Yposition Zposition Zrotation Xrotation Yrotation
                    JOINT RightHandPinky3
                    {
                      OFFSET -2.5948 0 0
                      CHANNELS 6 Xposition Yposition Zposition Zrotation Xrotation Yrotation
                      End Site
                      {
                        OFFSET -2.9239 0 0
                      }
                    }
                  }
                }
              }
            }
          }
        }
      }
    }
  }
  JOINT RightUpLeg
  {
    OFFSET -9.1245 -6.6564 -0.0554
    CHANNELS 6 Xposition Yposition Zposition Zrotation Xrotation Yrotation
    JOINT RightLeg
    {
      OFFSET -0.2447 -40.5954 -0.5145
      CHANNELS 6 Xposition Yposition Zposition Zrotation Xrotation Yrotation
      JOINT RightFoot
      {
        OFFSET 0.2447 -42.0479 -2.0602
        CHANNELS 6 Xposition Yposition Zposition Zrotation Xrotation Yrotation
        JOINT RightToeBase
        {
          OFFSET -0.3734 -10.4922 12.6407
          CHANNELS 6 Xposition Yposition Zposition Zrotation Xrotation Yrotation
          End Site
          {
            OFFSET 0 0 9.9925
          }
        }
      }
    }
  }
  JOINT LeftUpLeg
  {
    OFFSET 9.1245 -6.6564 -0.0554
    CHANNELS 6 Xposition Yposition Zposition Zrotation Xrotation Yrotation
    JOINT LeftLeg
    {
      OFFSET 0.2447 -40.5954 -0.517
      CHANNELS 6 Xposition Yposition Zposition Zrotation Xrotation Yrotation
      JOINT LeftFoot
      {
        OFFSET -0.2447 -42.048 -2.0576
        CHANNELS 6 Xposition Yposition Zposition Zrotation Xrotation Yrotation
        JOINT LeftToeBase
        {
          OFFSET 0.3734 -10.4922 12.6407
          CHANNELS 6 Xposition Yposition Zposition Zrotation Xrotation Yrotation
          End Site
          {
            OFFSET 0 0 9.9925
          }
        }
      }
    }
  }
}
MOTION
Frames:	4
Frame Time:	0.0166667
-1.29455 93.9526 21.1244 2.25733 8.71339 24.4116 -3.55271e-015 9.9235 -1.2273 0.0772743 8.00111 -5.43294 -0.0001 11.6454 -1.4223 0.903522 0.78525 -0.754441 0.0001 13.3602 -1.6265 0.898031 0.919753 -0.747157 -8.88178e-016 15.0325 0.7929 6.59684 4.55815 -3.24645 -3.55271e-015 10.3218 3.1424 -7.24013 -4.88884 -4.96334 0.0002 18.4747 6.6364 3.97569e-016 -3.18055e-015 -0 2.9479 7.6817 9.1207 3.97569e-016 -3.18055e-015 -0 -2.9445 7.6817 9.1205 3.97569e-016 -3.18055e-015 -0 6.1058 9.1104 0.7056 6.83441 -4.98007 -8.79924 12.655 -0.2659 -2.6009 -66.7965 37.8182 7.79959 27.4047 7.10543e-015 0 -4.51651e-005 1.0501e-005 -83.1898 27.6145 0 -1.42109e-014 -13.0855 8.9511 -3.2153 12.7755 7.10543e-015 0 -58.0348 -3.22903 6.9523 3.614 0 1.42109e-014 -81.8503 -5.94765 6.85802 3.4598 -1.42109e-014 7.10543e-015 -76.5409 -5.39087 6.74308 3.7888 -2.167 3.0031 4.99501 8.03431 15.9018 3.6754 -2.122 2.122 -13.173 18.8353 7.20789 3.3944 -1.9597 1.9598 10.9327 3.10448 40.4689 12.2666 -0.2317 2.8221 -56.0171 -3.00902 6.54261 3.892 1.06581e-014 0 -84.6885 -6.28814 6.89845 3.4152 -1.42109e-014 7.10543e-015 -77.3465 -5.41226 6.75925 12.147 0.0099 -2.2166 -60.9842 -3.58752 7.52574 3.6012 0 0 -77.3412 -5.41165 6.75913 3.3073 0 0 -75.6819 -5.30436 6.71952 10.9082 -0.2264 -4.7258 -63.1651 -3.85329 12.1254 4.1367 0 0 -74.0569 -1.0676 5.50688 2.5948 0 0 -75.1197 -5.1507 6.69489 -6.1057 9.1105 0.7056 1.39848 0.608627 1.06827 -12.655 -0.266 -2.6009 65.9138 -4.18392 -10.8567 -27.4047 0 0 -7.1816e-007 8.10997e-006 64.1093 -27.6145 0 0 6.86143 10.8235 1.25424 -12.7755 0 7.10543e-015 4.26475 0.123896 7.90716 -3.614 0 0 16.5682 -0.289879 -1.99064 -3.4598 0 0 11.2562 -0.134271 -1.36248 -3.7888 -2.167 3.0031 -9.1418 1.3144 -17.1325 -3.6754 -2.122 2.122 1.28246 2.14218 -3.46851 -3.3944 -1.9597 1.9598 -2.47067 -2.87327 2.62472 -12.2666 -0.2317 2.8221 1.71843 0.179116 9.02982 -3.892 0 0 13.2867 -0.186868 -1.60425 -3.4152 0 7.10543e-015 7.55439 -0.0605928 -0.917609 -12.147 0.0099 -2.2166 7.21136 0.0582201 6.93932 -3.6012 0 0 21.2921 -0.476647 -2.53525 -3.3073 0 -7.10543e-015 15.4239 -0.251421 -1.85657 -10.9082 -0.2264 -4.7258 9.52053 0.00548683 6.43915 -4.1367 0 -7.10543e-015 25.6336 -0.687391 -3.02082 -2.5948 7.10543e-015 7.10543e-015 18.1977 -0.349218 -2.18019 -9.1245 -6.6564 -0.0554 -3.06797 -23.6347 -11.1957 -0.2447 -40.5954 -0.5145 1.3093 54.6011 -4.06413 0.2447 -42.0479 -2.0602 0.343087 -2.86709 -3.59354 -0.3734 -10.4922 12.6407 -3.20462 -34.7808 -0.466178 9.1245 -6.6564 -0.0554 1.74646 -14.6368 19.4276 0.2447 -40.5954 -0.517 14.7382 32.6573 0.378984 -0.2447 -42.048 -2.0576 3.72347 -9.85147 28.1937 0.3734 -10.4922 12.6407 1.86047e-007 -4.77964 -3.90862e-005 
-1.29102 93.7042 22.2529 1.95988 8.75738 24.7098 8.88178e-016 9.9235 -1.2273 0.438179 8.46344 -5.06726 -0.0001 11.6454 -1.4223 0.815146 0.442649 -0.695513 0.0001 13.3602 -1.6265 0.810678 0.577124 -0.690152 0 15.0325 0.7929 6.55101 4.10223 -3.17802 0 10.3218 3.1424 -7.43808 -5.86644 -4.95754 0.0002 18.4747 6.6364 -3.97569e-016 3.18055e-015 1.59028e-015 2.9479 7.6817 9.1207 -3.97569e-016 3.18055e-015 1.59028e-015 -2.9445 7.6817 9.1205 -3.97569e-016 3.18055e-015 1.59028e-015 6.1058 9.1104 0.7056 6.61027 -4.95488 -8.8194 12.655 -0.2659 -2.6009 -65.3923 38.2452 7.66426 27.4047 0 0 -1.32196e-005 3.07099e-006 -84.4199 27.6145 0 1.42109e-014 -13.2124 8.3453 -3.47141 12.7755 0 1.42109e-014 -57.6516 -3.18088 6.71222 3.614 0 0 -81.8256 -5.94467 6.8576 3.4598 0 0 -76.5458 -5.3798 6.74355 3.7888 -2.167 3.0031 5.21073 7.90313 15.7738 3.6754 -2.122 2.122 -13.173 18.8353 7.20789 3.3944 -1.9597 1.9598 10.918 3.06243 40.4241 12.2666 -0.2317 2.8221 -55.8879 -2.98389 6.34629 3.892 0 7.10543e-015 -84.6885 -6.28814 6.89845 3.4152 1.42109e-014 -1.42109e-014 -77.328 -5.4101 6.75874 12.147 0.0099 -2.2166 -60.2777 -3.50912 7.22537 3.6012 1.06581e-014 7.10543e-015 -77.2971 -5.40642 6.75794 3.3073 -1.42109e-014 0 -75.7103 -5.2919 6.72078 10.9082 -0.2264 -4.7258 -62.1641 -3.75098 11.7663 4.1367 0 0 -74.0569 -1.0676 5.50688 2.5948 1.42109e-014 7.10543e-015 -75.1521 -5.15449 6.6959 -6.1057 9.1105 0.7056 1.32423 0.679828 1.8074 -12.655 -0.266 -2.6009 64.4818 -4.32043 -11.7879 -27.4047 0 7.10543e-015 -2.74399e-005 -8.13592e-007 65.1068 -27.6145 0 -7.10543e-015 6.90789 10.4306 1.4698 -12.7755 -1.42109e-014 0 4.74596 0.107141 7.6269 -3.614 1.42109e-014 -7.10543e-015 15.9731 -0.269551 -1.92104 -3.4598 7.10543e-015 -7.10543e-015 10.9867 -0.127943 -1.33027 -3.7888 -2.167 3.0031 -9.14165 1.32813 -17.1543 -3.6754 -2.122 2.122 1.28246 2.14218 -3.46851 -3.3944 -1.9597 1.9598 -2.46574 -2.85032 2.58839 -12.2666 -0.2317 2.8221 2.18598 0.16981 8.87155 -3.892 0 7.10543e-015 12.9487 -0.177504 -1.56414 -3.4152 1.42109e-014 -1.42109e-014 7.49469 -0.0596328 -0.910401 -12.147 0.0099 -2.2166 7.73096 0.0338171 6.49968 -3.6012 0 0 20.327 -0.434836 -2.42524 -3.3073 -7.10543e-015 7.10543e-015 14.9211 -0.235408 -1.79744 -10.9082 -0.2264 -4.7258 10.0908 -0.0243719 5.85149 -4.1367 0 0 24.2903 -0.618253 -2.87229 -2.5948 7.10543e-015 0 17.5715 -0.325762 -2.10755 -9.1245 -6.6564 -0.0554 -5.21591 -26.3073 -12.4922 -0.2447 -40.5954 -0.5145 3.2945 58.3923 -5.27442 0.2447 -42.0479 -2.0602 3.52831 0.213306 -3.51767 -0.3734 -10.4922 12.6407 -5.74551 -36.0914 -1.53802 9.1245 -6.6564 -0.0554 2.31417 -14.6936 19.2182 0.2447 -40.5954 -0.517 14.8923 33.1881 0.39918 -0.2447 -42.048 -2.0576 3.21026 -10.1703 28.2735 0.3734 -10.4922 12.6407 2.83464e-006 -4.14413 -9.95363e-006 
-1.29728 93.3822 23.3437 1.56052 8.84769 25.0121 1.77636e-015 9.9235 -1.2273 0.830677 8.9696 -4.74992 -0.0001 11.6454 -1.4223 0.763705 0.139928 -0.64532 0.0001 13.3602 -1.6265 0.760507 0.274421 -0.64103 -1.77636e-015 15.0325 0.7929 6.50494 3.67274 -3.08562 0 10.3218 3.1424 -7.71141 -7.06383 -4.84107 0.0002 18.4747 6.6364 -3.97569e-016 1.59028e-015 3.18055e-015 2.9479 7.6817 9.1207 -3.97569e-016 1.59028e-015 3.18055e-015 -2.9445 7.6817 9.1205 -3.97569e-016 1.59028e-015 3.18055e-015 6.1058 9.1104 0.7056 6.52675 -4.95049 -8.78014 12.655 -0.2659 -2.6009 -63.7445 38.7757 7.31722 27.4047 0 0 0.000135153 4.58848e-006 -85.7266 27.6145 0 1.42109e-014 -13.4344 7.79507 -3.66284 12.7755 0 -7.10543e-015 -57.4109 -3.14351 6.52952 3.614 -7.10543e-015 -7.10543e-015 -81.8095 -5.94274 6.85729 3.4598 0 0 -76.5478 -5.3678 6.7441 3.7888 -2.167 3.0031 5.34647 7.80683 15.6646 3.6754 -2.122 2.122 -13.173 18.8353 7.20789 3.3944 -1.9597 1.9598 10.9071 3.03144 40.3911 12.2666 -0.2317 2.8221 -55.8438 -2.96532 6.20697 3.892 7.10543e-015 -7.10543e-015 -84.6885 -6.28814 6.89845 3.4152 0 -7.10543e-015 -77.3156 -5.40862 6.75843 12.147 0.0099 -2.2166 -59.7891 -3.44608 6.9844 3.6012 -3.55271e-015 0 -77.2659 -5.40275 6.75709 3.3073 1.42109e-014 7.10543e-015 -75.726 -5.27794 6.7219 10.9082 -0.2264 -4.7258 -61.4518 -3.66663 11.4696 4.1367 3.55271e-015 0 -74.0569 -1.0676 5.50688 2.5948 0 -7.10543e-015 -75.1664 -5.15613 6.69633 -6.1057 9.1105 0.7056 1.32994 0.766869 2.65539 -12.655 -0.266 -2.6009 62.6837 -4.27134 -12.6988 -27.4047 -1.42109e-014 -1.42109e-014 5.51125e-005 -1.27831e-005 66.099 -27.6145 -1.42109e-014 -7.10543e-015 7.01807 10.0503 1.74085 -12.7755 0 -7.10543e-015 5.13057 0.0815095 7.31539 -3.614 0 0 15.3357 -0.248601 -1.84622 -3.4598 -1.42109e-014 7.10543e-015 10.7181 -0.121774 -1.29812 -3.7888 -2.167 3.0031 -9.15423 1.34403 -17.193 -3.6754 -2.122 2.122 1.28246 2.14218 -3.46851 -3.3944 -1.9597 1.9598 -2.46148 -2.83138 2.55833 -12.2666 -0.2317 2.8221 2.6063 0.146931 8.61431 -3.892 -1.42109e-014 -7.10543e-015 12.3757 -0.162179 -1.49603 -3.4152 0 -7.10543e-015 7.41828 -0.0584585 -0.901177 -12.147 0.0099 -2.2166 8.08999 0.00577075 6.10904 -3.6012 0 0 19.553 -0.402649 -2.33652 -3.3073 7.10543e-015 -7.10543e-015 14.4569 -0.221061 -1.7427 -10.9082 -0.2264 -4.7258 10.4418 -0.0533265 5.38107 -4.1367 0 0 23.3516 -0.572004 -2.76755 -2.5948 0 0 16.9895 -0.304686 -2.0398 -9.1245 -6.6564 -0.0554 -6.89085 -29.2142 -13.6176 -0.2447 -40.5954 -0.5145 5.23454 62.2246 -7.6693 0.2447 -42.0479 -2.0602 4.38832 0.0880592 -3.69682 -0.3734 -10.4922 12.6407 -5.24262 -32.4179 -1.15122 9.1245 -6.6564 -0.0554 2.98494 -14.8332 18.8871 0.2447 -40.5954 -0.517 15.0301 33.93 0.331016 -0.2447 -42.048 -2.0576 2.72696 -10.622 28.5363 0.3734 -10.4922 12.6407 9.66667e-006 -3.81035 2.55919e-006 
-1.31673 92.9694 24.3883 1.1074 8.99507 25.307 -8.88178e-016 9.9235 -1.2273 1.17702 9.51372 -4.48801 -0.0001 11.6454 -1.4223 0.755058 -0.0864118 -0.605816 0.0001 13.3602 -1.6265 0.753404 0.0481432 -0.60142 3.55271e-015 15.0325 0.7929 6.43637 3.28657 -2.9628 -3.55271e-015 10.3218 3.1424 -7.9971 -8.46439 -4.62813 0.0002 18.4747 6.6364 -3.97569e-016 4.77083e-015 -0 2.9479 7.6817 9.1207 -3.97569e-016 4.77083e-015 -0 -2.9445 7.6817 9.1205 -3.97569e-016 4.77083e-015 -0 6.1058 9.1104 0.7056 6.53615 -4.94681 -8.64594 12.655 -0.2659 -2.6009 -61.7685 39.3667 6.69334 27.4047 0 0 6.00947e-005 2.79774e-006 -87.0661 27.6145 0 -2.84217e-014 -13.7736 7.29739 -3.79925 12.7755 -7.10543e-015 0 -57.3054 -3.11638 6.39892 3.614 0 0 -81.8014 -5.94177 6.85716 3.4598 0 0 -76.5454 -5.35411 6.7446 3.7888 -2.167 3.0031 5.42032 7.73949 15.5721 3.6754 -2.122 2.122 -13.173 18.8353 7.20789 3.3944 -1.9597 1.9598 10.8999 3.01039 40.3685 12.2666 -0.2317 2.8221 -55.8905 -2.95459 6.128 3.892 -7.10543e-015 0 -84.6885 -6.28814 6.89845 3.4152 1.42109e-014 0 -77.3058 -5.40746 6.75817 12.147 0.0099 -2.2166 -59.4957 -3.39555 6.78727 3.6012 7.10543e-015 -7.10543e-015 -77.2461 -5.40043 6.75657 3.3073 1.42109e-014 0 -75.7292 -5.26146 6.7228 10.9082 -0.2264 -4.7258 -60.9916 -3.5956 11.2109 4.1367 0 0 -74.0569 -1.0676 5.50688 2.5948 0 0 -75.1639 -5.15588 6.69627 -6.1057 9.1105 0.7056 1.38846 0.86775 3.59333 -12.655 -0.266 -2.6009 60.572 -4.06673 -13.5545 -27.4047 1.42109e-014 0 -2.6806e-005 7.37828e-006 67.0594 -27.6145 0 -7.10543e-015 7.12903 9.66587 2.1047 -12.7755 -1.42109e-014 0 5.4606 0.0542494 6.99067 -3.614 0 -7.10543e-015 14.6291 -0.226329 -1.76303 -3.4598 0 0 10.4636 -0.116089 -1.26765 -3.7888 -2.167 3.0031 -9.1737 1.35866 -17.2368 -3.6754 -2.122 2.122 1.28246 2.14218 -3.46851 -3.3944 -1.9597 1.9598 -2.45718 -2.81183 2.52734 -12.2666 -0.2317 2.8221 3.01504 0.120486 8.2871 -3.892 1.42109e-014 0 11.5609 -0.141626 -1.39888 -3.4152 0 0 7.33307 -0.0570835 -0.890887 -12.147 0.0099 -2.2166 8.33992 -0.0208372 5.77303 -3.6012 0 0 18.9157 -0.377055 -2.26316 -3.3073 -7.10543e-015 0 14.0527 -0.208919 -1.69496 -10.9082 -0.2264 -4.7258 10.6349 -0.0774202 5.0234 -4.1367 0 -7.10543e-015 22.7351 -0.542609 -2.69837 -2.5948 1.42109e-014 -1.42109e-014 16.4863 -0.287027 -1.98106 -9.1245 -6.6564 -0.0554 -8.52663 -32.6497 -14.503 -0.2447 -40.5954 -0.5145 7.13693 65.8524 -10.8112 0.2447 -42.0479 -2.0602 5.62583 -0.495821 -4.53961 -0.3734 -10.4922 12.6407 -3.99173 -28.3652 -0.735971 9.1245 -6.6564 -0.0554 3.75665 -15.0397 18.47 0.2447 -40.5954 -0.517 15.0707 34.8938 0.17384 -0.2447 -42.048 -2.0576 2.05789 -11.3952 28.879 0.3734 -10.4922 12.6407 -2.50548e-006 -3.9208 -5.80316e-006 
